Coordinates
version=1
nRows=10
nColumns=46
inDegrees=yes

Units are S.I. units (second, meters, Newtons, ...)
Angles are in degrees.

endheader
time	pelvis_tilt	pelvis_list	pelvis_rotation	pelvis_tx	pelvis_ty	pelvis_tz	bb_angle	bb_tx	bb_ty	bb_tz	hip_flexion_r	hip_adduction_r	hip_rotation_r	knee_angle_r	knee_angle_r_beta	ankle_angle_r	subtalar_angle_r	mtp_angle_r	crank_angle_r	hip_flexion_l	hip_adduction_l	hip_rotation_l	knee_angle_l	knee_angle_l_beta	ankle_angle_l	subtalar_angle_l	mtp_angle_l	crank_angle_l	lumbar_extension	lumbar_bending	lumbar_rotation	arm_flex_r	arm_add_r	arm_rot_r	elbow_flex_r	pro_sup_r	wrist_flex_r	wrist_dev_r	arm_flex_l	arm_add_l	arm_rot_l	elbow_flex_l	pro_sup_l	wrist_flex_l	wrist_dev_l
      7.50500000	    -16.13855620	     -7.19594960	      2.44983074	      0.11612135	      1.07932970	     -0.25992388	      0.00000000	      0.50000000	      0.00000000	      0.25000000	     90.83058523	     -3.92724411	     -1.07210185	    118.06602067	      2.06064080	     16.03253623	     -8.83715263	      0.00000000	      0.00000000	     46.44147794	     -8.21759934	      2.85307582	     38.23394881	      0.66730829	     -6.64326820	     -6.31623558	      0.00000000	      0.00000000	    -56.03010534	      6.33138133	      2.43332357	     89.76290265	     -4.76047779	     34.08239885	     35.07511340	     23.91275693	      0.00000000	      0.00000000	     89.73253208	     -8.89258087	     38.49230066	     39.52413819	     25.77306581	      0.00000000	      0.00000000
      7.51000000	    -16.19906293	     -7.35332755	      2.47869973	      0.11524592	      1.08081807	     -0.26045809	      0.00000000	      0.50000000	      0.00000000	      0.25000000	     91.40073979	     -3.91391904	     -1.07653151	    117.63041615	      2.05303806	     15.35423891	     -8.59660081	      0.00000000	      0.00000000	     46.25369732	     -8.34696484	      2.87692412	     38.15849213	      0.66599133	     -7.01471698	     -6.19716491	      0.00000000	      0.00000000	    -56.10082282	      6.54411311	      2.58296111	     89.76392294	     -4.66655265	     33.99751278	     35.12625880	     23.89395560	      0.00000000	      0.00000000	     89.73702746	     -8.81977439	     38.39329971	     39.53531216	     25.73868891	      0.00000000	      0.00000000
      7.51500000	    -16.48656351	     -7.64033882	      2.50034154	      0.11413756	      1.08194358	     -0.26092979	      0.00000000	      0.50000000	      0.00000000	      0.25000000	     92.14739729	     -3.83656287	     -1.28514835	    117.07695499	      2.04337834	     14.23131498	     -9.33925814	      0.00000000	      0.00000000	     46.45857572	     -8.53223295	      3.06239662	     38.21818623	      0.66703318	     -7.59203977	     -6.40935487	      0.00000000	      0.00000000	    -55.94603468	      6.84606764	      2.93429905	     89.76359252	     -4.51632770	     33.12669880	     35.26455009	     23.70633739	      0.00000000	      0.00000000	     89.73993529	     -8.36746849	     37.76093561	     39.30989223	     25.44121153	      0.00000000	      0.00000000
      7.52000000	    -16.60313857	     -7.76764854	      2.53128546	      0.11320021	      1.08337373	     -0.26150065	      0.00000000	      0.50000000	      0.00000000	      0.25000000	     92.63233023	     -3.83424063	     -1.25058009	    116.54244117	      2.03404932	     13.60131229	     -9.11039589	      0.00000000	      0.00000000	     46.42701572	     -8.62042065	      3.04392911	     38.21243848	      0.66693287	     -8.04428035	     -6.31781138	      0.00000000	      0.00000000	    -55.95203354	      7.03350276	      3.03929635	     89.76771521	     -4.40412886	     33.01290067	     35.33308253	     23.68884764	      0.00000000	      0.00000000	     89.74374403	     -8.25518405	     37.68586675	     39.27730412	     25.39875827	      0.00000000	      0.00000000
      7.52500000	    -17.04159441	     -8.00592210	      2.54989020	      0.11207449	      1.08420920	     -0.26198211	      0.00000000	      0.50000000	      0.00000000	      0.25000000	     93.41648729	     -3.79930119	     -1.34891032	    115.95841237	      2.02385609	     12.64899563	     -9.56356712	      0.00000000	      0.00000000	     46.86350457	     -8.72981831	      3.19600621	     38.30521849	      0.66855218	     -8.70885511	     -6.67612661	      0.00000000	      0.00000000	    -55.60515611	      7.30612789	      3.29959431	     89.76710458	     -4.27225375	     32.36025308	     35.38110888	     23.56847866	      0.00000000	      0.00000000	     89.74702341	     -7.88864539	     37.33256795	     39.01119186	     25.20082078	      0.00000000	      0.00000000
      7.53000000	    -17.10951415	     -8.08585151	      2.62326658	      0.11108142	      1.08555571	     -0.26263140	      0.00000000	      0.50000000	      0.00000000	      0.25000000	     93.72460682	     -3.83923257	     -1.26994536	    115.43730265	      2.01476101	     12.10292548	     -9.38620760	      0.00000000	      0.00000000	     46.86031168	     -8.74979908	      3.16572211	     38.36148853	      0.66953428	     -9.05064001	     -6.56769674	      0.00000000	      0.00000000	    -55.62734882	      7.47655745	      3.35957505	     89.77091737	     -4.16747188	     32.24393308	     35.40364204	     23.54728545	      0.00000000	      0.00000000	     89.75248033	     -7.73952263	     37.27161401	     38.99745586	     25.16789290	      0.00000000	      0.00000000
      7.53500000	    -17.46698104	     -8.29263461	      2.69510489	      0.10992348	      1.08630118	     -0.26315876	      0.00000000	      0.50000000	      0.00000000	      0.25000000	     94.31470504	     -3.87069998	     -1.35796760	    114.89032711	      2.00521449	     11.24013554	     -9.80734856	      0.00000000	      0.00000000	     47.28482056	     -8.81562015	      3.28885192	     38.46567033	      0.67135260	     -9.69041927	     -6.76372067	      0.00000000	      0.00000000	    -55.32516765	      7.73746303	      3.64206777	     89.76936879	     -3.71411931	     30.21542012	     35.26701266	     23.06830806	      0.00000000	      0.00000000	     89.75810730	     -6.93105920	     36.14065395	     38.40668996	     24.48851915	      0.00000000	      0.00000000
      7.54000000	    -17.49581898	     -8.31373457	      2.79856728	      0.10892776	      1.08742467	     -0.26369818	      0.00000000	      0.50000000	      0.00000000	      0.25000000	     94.49391845	     -3.90746004	     -1.23437461	    114.47488861	      1.99796372	     11.14838996	     -9.76464620	      0.00000000	      0.00000000	     47.28995364	     -8.78051054	      3.22626995	     38.54219132	      0.67268814	     -9.79777977	     -6.72817817	      0.00000000	      0.00000000	    -55.37538449	      7.83600706	      3.61436459	     89.77790904	     -3.69800256	     30.20104468	     35.27961296	     23.06544530	      0.00000000	      0.00000000	     89.76871364	     -6.87570672	     36.13903236	     38.43688020	     24.48716251	      0.00000000	      0.00000000
      7.54500000	    -17.94282949	     -8.51455015	      2.95008047	      0.10764593	      1.08789573	     -0.26439211	      0.00000000	      0.50000000	      0.00000000	      0.25000000	     95.05124857	     -4.05538787	     -1.29492590	    113.92279450	      1.98832786	     10.36549456	     -9.94045977	      0.00000000	      0.00000000	     47.89251529	     -8.74991699	      3.40424738	     38.62875021	      0.67419888	    -10.76787725	     -6.97045926	      0.00000000	      0.00000000	    -54.92900571	      8.16898449	      3.73211063	     89.77496234	     -3.27331234	     28.80083539	     34.85032093	     24.45578215	      0.00000000	      0.00000000	     89.76629151	     -6.33489626	     35.29666775	     37.91024251	     25.53518300	      0.00000000	      0.00000000
      7.55000000	    -18.02531052	     -8.54174300	      3.12637677	      0.10656198	      1.08889047	     -0.26499017	      0.00000000	      0.50000000	      0.00000000	      0.25000000	     95.15685369	     -4.18092372	     -1.22407913	    113.48246919	      1.98064273	     10.05268456	    -10.19212232	      0.00000000	      0.00000000	     47.97328590	     -8.63580222	      3.41748919	     38.55200902	      0.67285949	    -11.36436131	     -7.09956638	      0.00000000	      0.00000000	    -54.92761753	      8.31767922	      3.76650190	     89.77699346	     -3.17653015	     27.84953508	     34.98236858	     25.07913628	      0.00000000	      0.00000000	     89.76953089	     -6.01136296	     34.64181534	     38.02238956	     26.01499860	      0.00000000	      0.00000000
